<?xml version="1.0" encoding="UTF-8"?>
<svg viewBox="0 0 282.6875 617.75" xmlns="http://www.w3.org/2000/svg" xmlns:xlink="http://www.w3.org/1999/xlink">
 <defs>
  <linearGradient id="a">
   <stop stop-color="#1a1a1a" offset="0"/>
   <stop stop-color="#1a1a1a" stop-opacity="0" offset="1"/>
  </linearGradient>
  <linearGradient id="d" x2="0" y1="49.865" y2="992.54" gradientUnits="userSpaceOnUse">
   <stop stop-color="#333" offset="0"/>
   <stop stop-color="#333" stop-opacity="0" offset="1"/>
  </linearGradient>
  <linearGradient id="c" x1="1051" x2="992.47" gradientUnits="userSpaceOnUse" xlink:href="#a"/>
  <linearGradient id="b" x1="703.47" x2="761.97" gradientUnits="userSpaceOnUse" xlink:href="#a"/>
 </defs>
 <path transform="translate(0,9.375)" d="m10 0.625v597.75c4.1495-0.0322 6.7922-2.0234 8.6562-5.0625h245.34c1.8641 3.0398 4.5375 5.0302 8.6875 5.0625v-597.75c-3.5018 2.8068-7.3368 3.1524-10.375 9.375h-241.94c-3.0387-6.2289-6.872-6.5672-10.375-9.375z" fill="#999"/>
 <path transform="translate(0,9.375)" d="m10 0.625v597.75c5.8526-0.0455 8.7456-3.9769 10.625-9.25h241.44c1.8794 5.2731 4.7724 9.2045 10.625 9.25v-597.75c-3.9701 3.1822-8.385 3.1338-11.562 12.156h-239.59c-3.1775-9.022-7.5612-8.9741-11.531-12.156z" fill="url(#d)"/>
 <g transform="translate(-735.55 613.4)" fill="#1a1a1a">
  <path d="m819.15-352.24h6.2825v6.2825h-6.2825z"/>
  <path d="m808.25-352.24h6.2825v6.2825h-6.2825z"/>
  <path d="m786.45-352.24h6.2825v6.2825h-6.2825z"/>
  <path d="m775.55-352.24h6.2825v6.2825h-6.2825z"/>
  <path d="m797.35-352.24h6.2825v6.2825h-6.2825z"/>
  <path d="m851.85-352.24h6.2825v6.2825h-6.2825z"/>
  <path d="m830.05-352.24h6.2825v6.2825h-6.2825z"/>
  <path d="m840.95-352.24h6.2825v6.2825h-6.2825z"/>
  <path d="m862.75-352.24h6.2825v6.2825h-6.2825z"/>
  <g transform="translate(0 10.926)">
   <path d="m819.15-352.24h6.2825v6.2825h-6.2825z"/>
   <path d="m808.25-352.24h6.2825v6.2825h-6.2825z"/>
   <path d="m786.45-352.24h6.2825v6.2825h-6.2825z"/>
   <path d="m775.55-352.24h6.2825v6.2825h-6.2825z"/>
   <path d="m797.35-352.24h6.2825v6.2825h-6.2825z"/>
   <path d="m851.85-352.24h6.2825v6.2825h-6.2825z"/>
   <path d="m830.05-352.24h6.2825v6.2825h-6.2825z"/>
   <path d="m840.95-352.24h6.2825v6.2825h-6.2825z"/>
   <path d="m862.75-352.24h6.2825v6.2825h-6.2825z"/>
  </g>
  <g transform="translate(0 21.852)">
   <path d="m819.15-352.24h6.2825v6.2825h-6.2825z"/>
   <path d="m808.25-352.24h6.2825v6.2825h-6.2825z"/>
   <path d="m786.45-352.24h6.2825v6.2825h-6.2825z"/>
   <path d="m775.55-352.24h6.2825v6.2825h-6.2825z"/>
   <path d="m797.35-352.24h6.2825v6.2825h-6.2825z"/>
   <path d="m851.85-352.24h6.2825v6.2825h-6.2825z"/>
   <path d="m830.05-352.24h6.2825v6.2825h-6.2825z"/>
   <path d="m840.95-352.24h6.2825v6.2825h-6.2825z"/>
   <path d="m862.75-352.24h6.2825v6.2825h-6.2825z"/>
  </g>
  <g transform="translate(0 32.778)">
   <path d="m819.15-352.24h6.2825v6.2825h-6.2825z"/>
   <path d="m808.25-352.24h6.2825v6.2825h-6.2825z"/>
   <path d="m786.45-352.24h6.2825v6.2825h-6.2825z"/>
   <path d="m775.55-352.24h6.2825v6.2825h-6.2825z"/>
   <path d="m797.35-352.24h6.2825v6.2825h-6.2825z"/>
   <path d="m851.85-352.24h6.2825v6.2825h-6.2825z"/>
   <path d="m830.05-352.24h6.2825v6.2825h-6.2825z"/>
   <path d="m840.95-352.24h6.2825v6.2825h-6.2825z"/>
   <path d="m862.75-352.24h6.2825v6.2825h-6.2825z"/>
  </g>
  <g transform="translate(0 43.704)">
   <path d="m819.15-352.24h6.2825v6.2825h-6.2825z"/>
   <path d="m808.25-352.24h6.2825v6.2825h-6.2825z"/>
   <path d="m786.45-352.24h6.2825v6.2825h-6.2825z"/>
   <path d="m775.55-352.24h6.2825v6.2825h-6.2825z"/>
   <path d="m797.35-352.24h6.2825v6.2825h-6.2825z"/>
   <path d="m851.85-352.24h6.2825v6.2825h-6.2825z"/>
   <path d="m830.05-352.24h6.2825v6.2825h-6.2825z"/>
   <path d="m840.95-352.24h6.2825v6.2825h-6.2825z"/>
   <path d="m862.75-352.24h6.2825v6.2825h-6.2825z"/>
  </g>
  <g transform="translate(0 54.63)">
   <path d="m819.15-352.24h6.2825v6.2825h-6.2825z"/>
   <path d="m808.25-352.24h6.2825v6.2825h-6.2825z"/>
   <path d="m786.45-352.24h6.2825v6.2825h-6.2825z"/>
   <path d="m775.55-352.24h6.2825v6.2825h-6.2825z"/>
   <path d="m797.35-352.24h6.2825v6.2825h-6.2825z"/>
   <path d="m851.85-352.24h6.2825v6.2825h-6.2825z"/>
   <path d="m830.05-352.24h6.2825v6.2825h-6.2825z"/>
   <path d="m840.95-352.24h6.2825v6.2825h-6.2825z"/>
   <path d="m862.75-352.24h6.2825v6.2825h-6.2825z"/>
  </g>
  <g transform="translate(0 65.557)">
   <path d="m819.15-352.24h6.2825v6.2825h-6.2825z"/>
   <path d="m808.25-352.24h6.2825v6.2825h-6.2825z"/>
   <path d="m786.45-352.24h6.2825v6.2825h-6.2825z"/>
   <path d="m775.55-352.24h6.2825v6.2825h-6.2825z"/>
   <path d="m797.35-352.24h6.2825v6.2825h-6.2825z"/>
   <path d="m851.85-352.24h6.2825v6.2825h-6.2825z"/>
   <path d="m830.05-352.24h6.2825v6.2825h-6.2825z"/>
   <path d="m840.95-352.24h6.2825v6.2825h-6.2825z"/>
   <path d="m862.75-352.24h6.2825v6.2825h-6.2825z"/>
  </g>
  <g transform="translate(0 76.483)">
   <path d="m819.15-352.24h6.2825v6.2825h-6.2825z"/>
   <path d="m808.25-352.24h6.2825v6.2825h-6.2825z"/>
   <path d="m786.45-352.24h6.2825v6.2825h-6.2825z"/>
   <path d="m775.55-352.24h6.2825v6.2825h-6.2825z"/>
   <path d="m797.35-352.24h6.2825v6.2825h-6.2825z"/>
   <path d="m851.85-352.24h6.2825v6.2825h-6.2825z"/>
   <path d="m830.05-352.24h6.2825v6.2825h-6.2825z"/>
   <path d="m840.95-352.24h6.2825v6.2825h-6.2825z"/>
   <path d="m862.75-352.24h6.2825v6.2825h-6.2825z"/>
  </g>
  <g transform="translate(0 87.409)">
   <path d="m819.15-352.24h6.2825v6.2825h-6.2825z"/>
   <path d="m808.25-352.24h6.2825v6.2825h-6.2825z"/>
   <path d="m786.45-352.24h6.2825v6.2825h-6.2825z"/>
   <path d="m775.55-352.24h6.2825v6.2825h-6.2825z"/>
   <path d="m797.35-352.24h6.2825v6.2825h-6.2825z"/>
   <path d="m851.85-352.24h6.2825v6.2825h-6.2825z"/>
   <path d="m830.05-352.24h6.2825v6.2825h-6.2825z"/>
   <path d="m840.95-352.24h6.2825v6.2825h-6.2825z"/>
   <path d="m862.75-352.24h6.2825v6.2825h-6.2825z"/>
  </g>
  <g transform="translate(0 98.335)">
   <path d="m819.15-352.24h6.2825v6.2825h-6.2825z"/>
   <path d="m808.25-352.24h6.2825v6.2825h-6.2825z"/>
   <path d="m786.45-352.24h6.2825v6.2825h-6.2825z"/>
   <path d="m775.55-352.24h6.2825v6.2825h-6.2825z"/>
   <path d="m797.35-352.24h6.2825v6.2825h-6.2825z"/>
   <path d="m851.85-352.24h6.2825v6.2825h-6.2825z"/>
   <path d="m830.05-352.24h6.2825v6.2825h-6.2825z"/>
   <path d="m840.95-352.24h6.2825v6.2825h-6.2825z"/>
   <path d="m862.75-352.24h6.2825v6.2825h-6.2825z"/>
  </g>
  <g transform="translate(0 109.26)">
   <path d="m819.15-352.24h6.2825v6.2825h-6.2825z"/>
   <path d="m808.25-352.24h6.2825v6.2825h-6.2825z"/>
   <path d="m786.45-352.24h6.2825v6.2825h-6.2825z"/>
   <path d="m775.55-352.24h6.2825v6.2825h-6.2825z"/>
   <path d="m797.35-352.24h6.2825v6.2825h-6.2825z"/>
   <path d="m851.85-352.24h6.2825v6.2825h-6.2825z"/>
   <path d="m830.05-352.24h6.2825v6.2825h-6.2825z"/>
   <path d="m840.95-352.24h6.2825v6.2825h-6.2825z"/>
   <path d="m862.75-352.24h6.2825v6.2825h-6.2825z"/>
  </g>
  <g transform="translate(0 120.19)">
   <path d="m819.15-352.24h6.2825v6.2825h-6.2825z"/>
   <path d="m808.25-352.24h6.2825v6.2825h-6.2825z"/>
   <path d="m786.45-352.24h6.2825v6.2825h-6.2825z"/>
   <path d="m775.55-352.24h6.2825v6.2825h-6.2825z"/>
   <path d="m797.35-352.24h6.2825v6.2825h-6.2825z"/>
   <path d="m851.85-352.24h6.2825v6.2825h-6.2825z"/>
   <path d="m830.05-352.24h6.2825v6.2825h-6.2825z"/>
   <path d="m840.95-352.24h6.2825v6.2825h-6.2825z"/>
   <path d="m862.75-352.24h6.2825v6.2825h-6.2825z"/>
  </g>
  <g transform="translate(0 131.11)">
   <path d="m819.15-352.24h6.2825v6.2825h-6.2825z"/>
   <path d="m808.25-352.24h6.2825v6.2825h-6.2825z"/>
   <path d="m786.45-352.24h6.2825v6.2825h-6.2825z"/>
   <path d="m775.55-352.24h6.2825v6.2825h-6.2825z"/>
   <path d="m797.35-352.24h6.2825v6.2825h-6.2825z"/>
   <path d="m851.85-352.24h6.2825v6.2825h-6.2825z"/>
   <path d="m830.05-352.24h6.2825v6.2825h-6.2825z"/>
   <path d="m840.95-352.24h6.2825v6.2825h-6.2825z"/>
   <path d="m862.75-352.24h6.2825v6.2825h-6.2825z"/>
  </g>
  <g transform="translate(0 142.04)">
   <path d="m819.15-352.24h6.2825v6.2825h-6.2825z"/>
   <path d="m808.25-352.24h6.2825v6.2825h-6.2825z"/>
   <path d="m786.45-352.24h6.2825v6.2825h-6.2825z"/>
   <path d="m775.55-352.24h6.2825v6.2825h-6.2825z"/>
   <path d="m797.35-352.24h6.2825v6.2825h-6.2825z"/>
   <path d="m851.85-352.24h6.2825v6.2825h-6.2825z"/>
   <path d="m830.05-352.24h6.2825v6.2825h-6.2825z"/>
   <path d="m840.95-352.24h6.2825v6.2825h-6.2825z"/>
   <path d="m862.75-352.24h6.2825v6.2825h-6.2825z"/>
  </g>
  <g transform="translate(0 152.97)">
   <path d="m819.15-352.24h6.2825v6.2825h-6.2825z"/>
   <path d="m808.25-352.24h6.2825v6.2825h-6.2825z"/>
   <path d="m786.45-352.24h6.2825v6.2825h-6.2825z"/>
   <path d="m775.55-352.24h6.2825v6.2825h-6.2825z"/>
   <path d="m797.35-352.24h6.2825v6.2825h-6.2825z"/>
   <path d="m851.85-352.24h6.2825v6.2825h-6.2825z"/>
   <path d="m830.05-352.24h6.2825v6.2825h-6.2825z"/>
   <path d="m840.95-352.24h6.2825v6.2825h-6.2825z"/>
   <path d="m862.75-352.24h6.2825v6.2825h-6.2825z"/>
  </g>
  <g transform="translate(0 163.89)">
   <path d="m819.15-352.24h6.2825v6.2825h-6.2825z"/>
   <path d="m808.25-352.24h6.2825v6.2825h-6.2825z"/>
   <path d="m786.45-352.24h6.2825v6.2825h-6.2825z"/>
   <path d="m775.55-352.24h6.2825v6.2825h-6.2825z"/>
   <path d="m797.35-352.24h6.2825v6.2825h-6.2825z"/>
   <path d="m851.85-352.24h6.2825v6.2825h-6.2825z"/>
   <path d="m830.05-352.24h6.2825v6.2825h-6.2825z"/>
   <path d="m840.95-352.24h6.2825v6.2825h-6.2825z"/>
   <path d="m862.75-352.24h6.2825v6.2825h-6.2825z"/>
  </g>
  <g transform="translate(0 174.82)">
   <path d="m819.15-352.24h6.2825v6.2825h-6.2825z"/>
   <path d="m808.25-352.24h6.2825v6.2825h-6.2825z"/>
   <path d="m786.45-352.24h6.2825v6.2825h-6.2825z"/>
   <path d="m775.55-352.24h6.2825v6.2825h-6.2825z"/>
   <path d="m797.35-352.24h6.2825v6.2825h-6.2825z"/>
   <path d="m851.85-352.24h6.2825v6.2825h-6.2825z"/>
   <path d="m830.05-352.24h6.2825v6.2825h-6.2825z"/>
   <path d="m840.95-352.24h6.2825v6.2825h-6.2825z"/>
   <path d="m862.75-352.24h6.2825v6.2825h-6.2825z"/>
  </g>
  <g transform="translate(0 185.74)">
   <path d="m819.15-352.24h6.2825v6.2825h-6.2825z"/>
   <path d="m808.25-352.24h6.2825v6.2825h-6.2825z"/>
   <path d="m786.45-352.24h6.2825v6.2825h-6.2825z"/>
   <path d="m775.55-352.24h6.2825v6.2825h-6.2825z"/>
   <path d="m797.35-352.24h6.2825v6.2825h-6.2825z"/>
   <path d="m851.85-352.24h6.2825v6.2825h-6.2825z"/>
   <path d="m830.05-352.24h6.2825v6.2825h-6.2825z"/>
   <path d="m840.95-352.24h6.2825v6.2825h-6.2825z"/>
   <path d="m862.75-352.24h6.2825v6.2825h-6.2825z"/>
  </g>
  <g transform="translate(0 196.67)">
   <path d="m819.15-352.24h6.2825v6.2825h-6.2825z"/>
   <path d="m808.25-352.24h6.2825v6.2825h-6.2825z"/>
   <path d="m786.45-352.24h6.2825v6.2825h-6.2825z"/>
   <path d="m775.55-352.24h6.2825v6.2825h-6.2825z"/>
   <path d="m797.35-352.24h6.2825v6.2825h-6.2825z"/>
   <path d="m851.85-352.24h6.2825v6.2825h-6.2825z"/>
   <path d="m830.05-352.24h6.2825v6.2825h-6.2825z"/>
   <path d="m840.95-352.24h6.2825v6.2825h-6.2825z"/>
   <path d="m862.75-352.24h6.2825v6.2825h-6.2825z"/>
  </g>
  <g transform="translate(0 207.6)">
   <path d="m819.15-352.24h6.2825v6.2825h-6.2825z"/>
   <path d="m808.25-352.24h6.2825v6.2825h-6.2825z"/>
   <path d="m786.45-352.24h6.2825v6.2825h-6.2825z"/>
   <path d="m775.55-352.24h6.2825v6.2825h-6.2825z"/>
   <path d="m797.35-352.24h6.2825v6.2825h-6.2825z"/>
   <path d="m851.85-352.24h6.2825v6.2825h-6.2825z"/>
   <path d="m830.05-352.24h6.2825v6.2825h-6.2825z"/>
   <path d="m840.95-352.24h6.2825v6.2825h-6.2825z"/>
   <path d="m862.75-352.24h6.2825v6.2825h-6.2825z"/>
  </g>
  <path d="m819.15-133.72h6.2825v6.2825h-6.2825z"/>
  <path d="m808.25-133.72h6.2825v6.2825h-6.2825z"/>
  <path d="m786.45-133.72h6.2825v6.2825h-6.2825z"/>
  <path d="m775.55-133.72h6.2825v6.2825h-6.2825z"/>
  <path d="m797.35-133.72h6.2825v6.2825h-6.2825z"/>
  <path d="m851.85-133.72h6.2825v6.2825h-6.2825z"/>
  <path d="m830.05-133.72h6.2825v6.2825h-6.2825z"/>
  <path d="m840.95-133.72h6.2825v6.2825h-6.2825z"/>
  <path d="m862.75-133.72h6.2825v6.2825h-6.2825z"/>
  <path d="m819.15-122.8h6.2825v6.2825h-6.2825z"/>
  <path d="m808.25-122.8h6.2825v6.2825h-6.2825z"/>
  <path d="m786.45-122.8h6.2825v6.2825h-6.2825z"/>
  <path d="m775.55-122.8h6.2825v6.2825h-6.2825z"/>
  <path d="m797.35-122.8h6.2825v6.2825h-6.2825z"/>
  <path d="m851.85-122.8h6.2825v6.2825h-6.2825z"/>
  <path d="m830.05-122.8h6.2825v6.2825h-6.2825z"/>
  <path d="m840.95-122.8h6.2825v6.2825h-6.2825z"/>
  <path d="m862.75-122.8h6.2825v6.2825h-6.2825z"/>
  <path d="m819.15-111.87h6.2825v6.2825h-6.2825z"/>
  <path d="m808.25-111.87h6.2825v6.2825h-6.2825z"/>
  <path d="m851.85-111.87h6.2825v6.2825h-6.2825z"/>
  <path d="m830.05-111.87h6.2825v6.2825h-6.2825z"/>
  <path d="m840.95-111.87h6.2825v6.2825h-6.2825z"/>
  <path d="m862.75-111.87h6.2825v6.2825h-6.2825z"/>
  <path d="m819.15-100.94h6.2825v6.2825h-6.2825z"/>
  <path d="m808.25-100.94h6.2825v6.2825h-6.2825z"/>
  <path d="m851.85-100.94h6.2825v6.2825h-6.2825z"/>
  <path d="m830.05-100.94h6.2825v6.2825h-6.2825z"/>
  <path d="m840.95-100.94h6.2825v6.2825h-6.2825z"/>
  <path d="m862.75-100.94h6.2825v6.2825h-6.2825z"/>
  <g transform="translate(108.81)">
   <path d="m819.15-352.24h6.2825v6.2825h-6.2825z"/>
   <path d="m808.25-352.24h6.2825v6.2825h-6.2825z"/>
   <path d="m786.45-352.24h6.2825v6.2825h-6.2825z"/>
   <path d="m775.55-352.24h6.2825v6.2825h-6.2825z"/>
   <path d="m797.35-352.24h6.2825v6.2825h-6.2825z"/>
   <path d="m851.85-352.24h6.2825v6.2825h-6.2825z"/>
   <path d="m830.05-352.24h6.2825v6.2825h-6.2825z"/>
   <path d="m840.95-352.24h6.2825v6.2825h-6.2825z"/>
   <path d="m862.75-352.24h6.2825v6.2825h-6.2825z"/>
  </g>
  <g transform="translate(108.81 10.926)">
   <path d="m819.15-352.24h6.2825v6.2825h-6.2825z"/>
   <path d="m808.25-352.24h6.2825v6.2825h-6.2825z"/>
   <path d="m786.45-352.24h6.2825v6.2825h-6.2825z"/>
   <path d="m775.55-352.24h6.2825v6.2825h-6.2825z"/>
   <path d="m797.35-352.24h6.2825v6.2825h-6.2825z"/>
   <path d="m851.85-352.24h6.2825v6.2825h-6.2825z"/>
   <path d="m830.05-352.24h6.2825v6.2825h-6.2825z"/>
   <path d="m840.95-352.24h6.2825v6.2825h-6.2825z"/>
   <path d="m862.75-352.24h6.2825v6.2825h-6.2825z"/>
  </g>
  <g transform="translate(108.81 21.852)">
   <path d="m819.15-352.24h6.2825v6.2825h-6.2825z"/>
   <path d="m808.25-352.24h6.2825v6.2825h-6.2825z"/>
   <path d="m786.45-352.24h6.2825v6.2825h-6.2825z"/>
   <path d="m775.55-352.24h6.2825v6.2825h-6.2825z"/>
   <path d="m797.35-352.24h6.2825v6.2825h-6.2825z"/>
   <path d="m851.85-352.24h6.2825v6.2825h-6.2825z"/>
   <path d="m830.05-352.24h6.2825v6.2825h-6.2825z"/>
   <path d="m840.95-352.24h6.2825v6.2825h-6.2825z"/>
   <path d="m862.75-352.24h6.2825v6.2825h-6.2825z"/>
  </g>
  <g transform="translate(108.81 32.778)">
   <path d="m819.15-352.24h6.2825v6.2825h-6.2825z"/>
   <path d="m808.25-352.24h6.2825v6.2825h-6.2825z"/>
   <path d="m786.45-352.24h6.2825v6.2825h-6.2825z"/>
   <path d="m775.55-352.24h6.2825v6.2825h-6.2825z"/>
   <path d="m797.35-352.24h6.2825v6.2825h-6.2825z"/>
   <path d="m851.85-352.24h6.2825v6.2825h-6.2825z"/>
   <path d="m830.05-352.24h6.2825v6.2825h-6.2825z"/>
   <path d="m840.95-352.24h6.2825v6.2825h-6.2825z"/>
   <path d="m862.75-352.24h6.2825v6.2825h-6.2825z"/>
  </g>
  <g transform="translate(108.81 43.704)">
   <path d="m819.15-352.24h6.2825v6.2825h-6.2825z"/>
   <path d="m808.25-352.24h6.2825v6.2825h-6.2825z"/>
   <path d="m786.45-352.24h6.2825v6.2825h-6.2825z"/>
   <path d="m775.55-352.24h6.2825v6.2825h-6.2825z"/>
   <path d="m797.35-352.24h6.2825v6.2825h-6.2825z"/>
   <path d="m851.85-352.24h6.2825v6.2825h-6.2825z"/>
   <path d="m830.05-352.24h6.2825v6.2825h-6.2825z"/>
   <path d="m840.95-352.24h6.2825v6.2825h-6.2825z"/>
   <path d="m862.75-352.24h6.2825v6.2825h-6.2825z"/>
  </g>
  <g transform="translate(108.81 54.63)">
   <path d="m819.15-352.24h6.2825v6.2825h-6.2825z"/>
   <path d="m808.25-352.24h6.2825v6.2825h-6.2825z"/>
   <path d="m786.45-352.24h6.2825v6.2825h-6.2825z"/>
   <path d="m775.55-352.24h6.2825v6.2825h-6.2825z"/>
   <path d="m797.35-352.24h6.2825v6.2825h-6.2825z"/>
   <path d="m851.85-352.24h6.2825v6.2825h-6.2825z"/>
   <path d="m830.05-352.24h6.2825v6.2825h-6.2825z"/>
   <path d="m840.95-352.24h6.2825v6.2825h-6.2825z"/>
   <path d="m862.75-352.24h6.2825v6.2825h-6.2825z"/>
  </g>
  <g transform="translate(108.81 65.557)">
   <path d="m819.15-352.24h6.2825v6.2825h-6.2825z"/>
   <path d="m808.25-352.24h6.2825v6.2825h-6.2825z"/>
   <path d="m786.45-352.24h6.2825v6.2825h-6.2825z"/>
   <path d="m775.55-352.24h6.2825v6.2825h-6.2825z"/>
   <path d="m797.35-352.24h6.2825v6.2825h-6.2825z"/>
   <path d="m851.85-352.24h6.2825v6.2825h-6.2825z"/>
   <path d="m830.05-352.24h6.2825v6.2825h-6.2825z"/>
   <path d="m840.95-352.24h6.2825v6.2825h-6.2825z"/>
   <path d="m862.75-352.24h6.2825v6.2825h-6.2825z"/>
  </g>
  <g transform="translate(108.81 76.483)">
   <path d="m819.15-352.24h6.2825v6.2825h-6.2825z"/>
   <path d="m808.25-352.24h6.2825v6.2825h-6.2825z"/>
   <path d="m786.45-352.24h6.2825v6.2825h-6.2825z"/>
   <path d="m775.55-352.24h6.2825v6.2825h-6.2825z"/>
   <path d="m797.35-352.24h6.2825v6.2825h-6.2825z"/>
   <path d="m851.85-352.24h6.2825v6.2825h-6.2825z"/>
   <path d="m830.05-352.24h6.2825v6.2825h-6.2825z"/>
   <path d="m840.95-352.24h6.2825v6.2825h-6.2825z"/>
   <path d="m862.75-352.24h6.2825v6.2825h-6.2825z"/>
  </g>
  <g transform="translate(108.81 87.409)">
   <path d="m819.15-352.24h6.2825v6.2825h-6.2825z"/>
   <path d="m808.25-352.24h6.2825v6.2825h-6.2825z"/>
   <path d="m786.45-352.24h6.2825v6.2825h-6.2825z"/>
   <path d="m775.55-352.24h6.2825v6.2825h-6.2825z"/>
   <path d="m797.35-352.24h6.2825v6.2825h-6.2825z"/>
   <path d="m851.85-352.24h6.2825v6.2825h-6.2825z"/>
   <path d="m830.05-352.24h6.2825v6.2825h-6.2825z"/>
   <path d="m840.95-352.24h6.2825v6.2825h-6.2825z"/>
   <path d="m862.75-352.24h6.2825v6.2825h-6.2825z"/>
  </g>
  <g transform="translate(108.81 98.335)">
   <path d="m819.15-352.24h6.2825v6.2825h-6.2825z"/>
   <path d="m808.25-352.24h6.2825v6.2825h-6.2825z"/>
   <path d="m786.45-352.24h6.2825v6.2825h-6.2825z"/>
   <path d="m775.55-352.24h6.2825v6.2825h-6.2825z"/>
   <path d="m797.35-352.24h6.2825v6.2825h-6.2825z"/>
   <path d="m851.85-352.24h6.2825v6.2825h-6.2825z"/>
   <path d="m830.05-352.24h6.2825v6.2825h-6.2825z"/>
   <path d="m840.95-352.24h6.2825v6.2825h-6.2825z"/>
   <path d="m862.75-352.24h6.2825v6.2825h-6.2825z"/>
  </g>
  <g transform="translate(108.81 109.26)">
   <path d="m819.15-352.24h6.2825v6.2825h-6.2825z"/>
   <path d="m808.25-352.24h6.2825v6.2825h-6.2825z"/>
   <path d="m786.45-352.24h6.2825v6.2825h-6.2825z"/>
   <path d="m775.55-352.24h6.2825v6.2825h-6.2825z"/>
   <path d="m797.35-352.24h6.2825v6.2825h-6.2825z"/>
   <path d="m851.85-352.24h6.2825v6.2825h-6.2825z"/>
   <path d="m830.05-352.24h6.2825v6.2825h-6.2825z"/>
   <path d="m840.95-352.24h6.2825v6.2825h-6.2825z"/>
   <path d="m862.75-352.24h6.2825v6.2825h-6.2825z"/>
  </g>
  <g transform="translate(108.81 120.19)">
   <path d="m819.15-352.24h6.2825v6.2825h-6.2825z"/>
   <path d="m808.25-352.24h6.2825v6.2825h-6.2825z"/>
   <path d="m786.45-352.24h6.2825v6.2825h-6.2825z"/>
   <path d="m775.55-352.24h6.2825v6.2825h-6.2825z"/>
   <path d="m797.35-352.24h6.2825v6.2825h-6.2825z"/>
   <path d="m851.85-352.24h6.2825v6.2825h-6.2825z"/>
   <path d="m830.05-352.24h6.2825v6.2825h-6.2825z"/>
   <path d="m840.95-352.24h6.2825v6.2825h-6.2825z"/>
   <path d="m862.75-352.24h6.2825v6.2825h-6.2825z"/>
  </g>
  <g transform="translate(108.81 131.11)">
   <path d="m819.15-352.24h6.2825v6.2825h-6.2825z"/>
   <path d="m808.25-352.24h6.2825v6.2825h-6.2825z"/>
   <path d="m786.45-352.24h6.2825v6.2825h-6.2825z"/>
   <path d="m775.55-352.24h6.2825v6.2825h-6.2825z"/>
   <path d="m797.35-352.24h6.2825v6.2825h-6.2825z"/>
   <path d="m851.85-352.24h6.2825v6.2825h-6.2825z"/>
   <path d="m830.05-352.24h6.2825v6.2825h-6.2825z"/>
   <path d="m840.95-352.24h6.2825v6.2825h-6.2825z"/>
   <path d="m862.75-352.24h6.2825v6.2825h-6.2825z"/>
  </g>
  <g transform="translate(108.81 142.04)">
   <path d="m819.15-352.24h6.2825v6.2825h-6.2825z"/>
   <path d="m808.25-352.24h6.2825v6.2825h-6.2825z"/>
   <path d="m786.45-352.24h6.2825v6.2825h-6.2825z"/>
   <path d="m775.55-352.24h6.2825v6.2825h-6.2825z"/>
   <path d="m797.35-352.24h6.2825v6.2825h-6.2825z"/>
   <path d="m851.85-352.24h6.2825v6.2825h-6.2825z"/>
   <path d="m830.05-352.24h6.2825v6.2825h-6.2825z"/>
   <path d="m840.95-352.24h6.2825v6.2825h-6.2825z"/>
   <path d="m862.75-352.24h6.2825v6.2825h-6.2825z"/>
  </g>
  <g transform="translate(108.81 152.97)">
   <path d="m819.15-352.24h6.2825v6.2825h-6.2825z"/>
   <path d="m808.25-352.24h6.2825v6.2825h-6.2825z"/>
   <path d="m786.45-352.24h6.2825v6.2825h-6.2825z"/>
   <path d="m775.55-352.24h6.2825v6.2825h-6.2825z"/>
   <path d="m797.35-352.24h6.2825v6.2825h-6.2825z"/>
   <path d="m851.85-352.24h6.2825v6.2825h-6.2825z"/>
   <path d="m830.05-352.24h6.2825v6.2825h-6.2825z"/>
   <path d="m840.95-352.24h6.2825v6.2825h-6.2825z"/>
   <path d="m862.75-352.24h6.2825v6.2825h-6.2825z"/>
  </g>
  <g transform="translate(108.81 163.89)">
   <path d="m819.15-352.24h6.2825v6.2825h-6.2825z"/>
   <path d="m808.25-352.24h6.2825v6.2825h-6.2825z"/>
   <path d="m786.45-352.24h6.2825v6.2825h-6.2825z"/>
   <path d="m775.55-352.24h6.2825v6.2825h-6.2825z"/>
   <path d="m797.35-352.24h6.2825v6.2825h-6.2825z"/>
   <path d="m851.85-352.24h6.2825v6.2825h-6.2825z"/>
   <path d="m830.05-352.24h6.2825v6.2825h-6.2825z"/>
   <path d="m840.95-352.24h6.2825v6.2825h-6.2825z"/>
   <path d="m862.75-352.24h6.2825v6.2825h-6.2825z"/>
  </g>
  <g transform="translate(108.81 174.82)">
   <path d="m819.15-352.24h6.2825v6.2825h-6.2825z"/>
   <path d="m808.25-352.24h6.2825v6.2825h-6.2825z"/>
   <path d="m786.45-352.24h6.2825v6.2825h-6.2825z"/>
   <path d="m775.55-352.24h6.2825v6.2825h-6.2825z"/>
   <path d="m797.35-352.24h6.2825v6.2825h-6.2825z"/>
   <path d="m851.85-352.24h6.2825v6.2825h-6.2825z"/>
   <path d="m830.05-352.24h6.2825v6.2825h-6.2825z"/>
   <path d="m840.95-352.24h6.2825v6.2825h-6.2825z"/>
   <path d="m862.75-352.24h6.2825v6.2825h-6.2825z"/>
  </g>
  <g transform="translate(108.81 185.74)">
   <path d="m819.15-352.24h6.2825v6.2825h-6.2825z"/>
   <path d="m808.25-352.24h6.2825v6.2825h-6.2825z"/>
   <path d="m786.45-352.24h6.2825v6.2825h-6.2825z"/>
   <path d="m775.55-352.24h6.2825v6.2825h-6.2825z"/>
   <path d="m797.35-352.24h6.2825v6.2825h-6.2825z"/>
   <path d="m851.85-352.24h6.2825v6.2825h-6.2825z"/>
   <path d="m830.05-352.24h6.2825v6.2825h-6.2825z"/>
   <path d="m840.95-352.24h6.2825v6.2825h-6.2825z"/>
   <path d="m862.75-352.24h6.2825v6.2825h-6.2825z"/>
  </g>
  <g transform="translate(108.81 196.67)">
   <path d="m819.15-352.24h6.2825v6.2825h-6.2825z"/>
   <path d="m808.25-352.24h6.2825v6.2825h-6.2825z"/>
   <path d="m786.45-352.24h6.2825v6.2825h-6.2825z"/>
   <path d="m775.55-352.24h6.2825v6.2825h-6.2825z"/>
   <path d="m797.35-352.24h6.2825v6.2825h-6.2825z"/>
   <path d="m851.85-352.24h6.2825v6.2825h-6.2825z"/>
   <path d="m830.05-352.24h6.2825v6.2825h-6.2825z"/>
   <path d="m840.95-352.24h6.2825v6.2825h-6.2825z"/>
   <path d="m862.75-352.24h6.2825v6.2825h-6.2825z"/>
  </g>
  <g transform="translate(108.81 207.6)">
   <path d="m819.15-352.24h6.2825v6.2825h-6.2825z"/>
   <path d="m808.25-352.24h6.2825v6.2825h-6.2825z"/>
   <path d="m786.45-352.24h6.2825v6.2825h-6.2825z"/>
   <path d="m775.55-352.24h6.2825v6.2825h-6.2825z"/>
   <path d="m797.35-352.24h6.2825v6.2825h-6.2825z"/>
   <path d="m851.85-352.24h6.2825v6.2825h-6.2825z"/>
   <path d="m830.05-352.24h6.2825v6.2825h-6.2825z"/>
   <path d="m840.95-352.24h6.2825v6.2825h-6.2825z"/>
   <path d="m862.75-352.24h6.2825v6.2825h-6.2825z"/>
  </g>
  <g transform="translate(108.81 218.52)">
   <path d="m819.15-352.24h6.2825v6.2825h-6.2825z"/>
   <path d="m808.25-352.24h6.2825v6.2825h-6.2825z"/>
   <path d="m786.45-352.24h6.2825v6.2825h-6.2825z"/>
   <path d="m775.55-352.24h6.2825v6.2825h-6.2825z"/>
   <path d="m797.35-352.24h6.2825v6.2825h-6.2825z"/>
   <path d="m851.85-352.24h6.2825v6.2825h-6.2825z"/>
   <path d="m830.05-352.24h6.2825v6.2825h-6.2825z"/>
   <path d="m840.95-352.24h6.2825v6.2825h-6.2825z"/>
   <path d="m862.75-352.24h6.2825v6.2825h-6.2825z"/>
  </g>
  <g transform="translate(108.81 229.45)">
   <path d="m819.15-352.24h6.2825v6.2825h-6.2825z"/>
   <path d="m808.25-352.24h6.2825v6.2825h-6.2825z"/>
   <path d="m786.45-352.24h6.2825v6.2825h-6.2825z"/>
   <path d="m775.55-352.24h6.2825v6.2825h-6.2825z"/>
   <path d="m797.35-352.24h6.2825v6.2825h-6.2825z"/>
   <path d="m851.85-352.24h6.2825v6.2825h-6.2825z"/>
   <path d="m830.05-352.24h6.2825v6.2825h-6.2825z"/>
   <path d="m840.95-352.24h6.2825v6.2825h-6.2825z"/>
   <path d="m862.75-352.24h6.2825v6.2825h-6.2825z"/>
  </g>
  <g transform="translate(108.81 240.37)">
   <path d="m819.15-352.24h6.2825v6.2825h-6.2825z"/>
   <path d="m808.25-352.24h6.2825v6.2825h-6.2825z"/>
   <path d="m786.45-352.24h6.2825v6.2825h-6.2825z"/>
   <path d="m775.55-352.24h6.2825v6.2825h-6.2825z"/>
   <path d="m797.35-352.24h6.2825v6.2825h-6.2825z"/>
   <path d="m851.85-352.24h6.2825v6.2825h-6.2825z"/>
   <path d="m830.05-352.24h6.2825v6.2825h-6.2825z"/>
   <path d="m840.95-352.24h6.2825v6.2825h-6.2825z"/>
   <path d="m862.75-352.24h6.2825v6.2825h-6.2825z"/>
  </g>
  <path d="m927.96-100.94h6.2825v6.2825h-6.2825z"/>
  <path d="m917.06-100.94h6.2825v6.2825h-6.2825z"/>
  <path d="m895.26-100.94h6.2825v6.2825h-6.2825z"/>
  <path d="m884.36-100.94h6.2825v6.2825h-6.2825z"/>
  <path d="m906.16-100.94h6.2825v6.2825h-6.2825z"/>
  <path d="m960.66-100.94h6.2825v6.2825h-6.2825z"/>
  <path d="m938.86-100.94h6.2825v6.2825h-6.2825z"/>
  <path d="m949.76-100.94h6.2825v6.2825h-6.2825z"/>
  <path d="m971.56-100.94h6.2825v6.2825h-6.2825z"/>
  <g transform="matrix(0 1 -1 0 527.95 -1127.8)">
   <path d="m819.15-352.24h6.2825v6.2825h-6.2825z"/>
   <path d="m808.25-352.24h6.2825v6.2825h-6.2825z"/>
   <path d="m786.45-352.24h6.2825v6.2825h-6.2825z"/>
   <path d="m775.55-352.24h6.2825v6.2825h-6.2825z"/>
   <path d="m797.35-352.24h6.2825v6.2825h-6.2825z"/>
   <path d="m851.85-352.24h6.2825v6.2825h-6.2825z"/>
   <path d="m830.05-352.24h6.2825v6.2825h-6.2825z"/>
   <path d="m840.95-352.24h6.2825v6.2825h-6.2825z"/>
   <path d="m862.75-352.24h6.2825v6.2825h-6.2825z"/>
  </g>
  <path transform="rotate(90)" d="m-144.55-879.69h6.2825v6.2825h-6.2825z"/>
  <path transform="rotate(90)" d="m-155.45-879.69h6.2825v6.2825h-6.2825z"/>
  <path transform="rotate(90)" d="m-177.25-879.69h6.2825v6.2825h-6.2825z"/>
  <path transform="rotate(90)" d="m-188.15-879.69h6.2825v6.2825h-6.2825z"/>
  <path transform="rotate(90)" d="m-166.35-879.69h6.2825v6.2825h-6.2825z"/>
  <path transform="rotate(90)" d="m-111.84-879.69h6.2825v6.2825h-6.2825z"/>
  <path transform="rotate(90)" d="m-133.65-879.69h6.2825v6.2825h-6.2825z"/>
  <path transform="rotate(90)" d="m-122.74-879.69h6.2825v6.2825h-6.2825z"/>
  <path transform="rotate(90)" d="m-100.94-879.69h6.2825v6.2825h-6.2825z"/>
  <g transform="matrix(0 1 -1 0 527.45 -1061.7)">
   <path d="m819.15-352.24h6.2825v6.2825h-6.2825z"/>
   <path d="m808.25-352.24h6.2825v6.2825h-6.2825z"/>
   <path d="m786.45-352.24h6.2825v6.2825h-6.2825z"/>
   <path d="m775.55-352.24h6.2825v6.2825h-6.2825z"/>
   <path d="m797.35-352.24h6.2825v6.2825h-6.2825z"/>
   <path d="m851.85-352.24h6.2825v6.2825h-6.2825z"/>
   <path d="m830.05-352.24h6.2825v6.2825h-6.2825z"/>
   <path d="m840.95-352.24h6.2825v6.2825h-6.2825z"/>
   <path d="m862.75-352.24h6.2825v6.2825h-6.2825z"/>
  </g>
  <path d="m819.15-89.767h6.2825v6.2825h-6.2825z"/>
  <path d="m808.25-89.767h6.2825v6.2825h-6.2825z"/>
  <path d="m851.85-89.767h6.2825v6.2825h-6.2825z"/>
  <path d="m830.05-89.767h6.2825v6.2825h-6.2825z"/>
  <path d="m840.95-89.767h6.2825v6.2825h-6.2825z"/>
  <path d="m862.75-89.767h6.2825v6.2825h-6.2825z"/>
  <path d="m819.15-78.841h6.2825v6.2825h-6.2825z"/>
  <path d="m808.25-78.841h6.2825v6.2825h-6.2825z"/>
  <path d="m851.85-78.841h6.2825v6.2825h-6.2825z"/>
  <path d="m830.05-78.841h6.2825v6.2825h-6.2825z"/>
  <path d="m840.95-78.841h6.2825v6.2825h-6.2825z"/>
  <path d="m862.75-78.841h6.2825v6.2825h-6.2825z"/>
  <path d="m819.15-67.914h6.2825v6.2825h-6.2825z"/>
  <path d="m808.25-67.914h6.2825v6.2825h-6.2825z"/>
  <path d="m851.85-67.914h6.2825v6.2825h-6.2825z"/>
  <path d="m830.05-67.914h6.2825v6.2825h-6.2825z"/>
  <path d="m840.95-67.914h6.2825v6.2825h-6.2825z"/>
  <path d="m862.75-67.914h6.2825v6.2825h-6.2825z"/>
  <path d="m819.15-56.988h6.2825v6.2825h-6.2825z"/>
  <path d="m808.25-56.988h6.2825v6.2825h-6.2825z"/>
  <path d="m851.85-56.988h6.2825v6.2825h-6.2825z"/>
  <path d="m830.05-56.988h6.2825v6.2825h-6.2825z"/>
  <path d="m840.95-56.988h6.2825v6.2825h-6.2825z"/>
  <path d="m862.75-56.988h6.2825v6.2825h-6.2825z"/>
  <g transform="translate(108.81 262.48)">
   <path d="m819.15-352.24h6.2825v6.2825h-6.2825z"/>
   <path d="m808.25-352.24h6.2825v6.2825h-6.2825z"/>
   <path d="m786.45-352.24h6.2825v6.2825h-6.2825z"/>
   <path d="m775.55-352.24h6.2825v6.2825h-6.2825z"/>
   <path d="m797.35-352.24h6.2825v6.2825h-6.2825z"/>
   <path d="m851.85-352.24h6.2825v6.2825h-6.2825z"/>
   <path d="m830.05-352.24h6.2825v6.2825h-6.2825z"/>
   <path d="m840.95-352.24h6.2825v6.2825h-6.2825z"/>
   <path d="m862.75-352.24h6.2825v6.2825h-6.2825z"/>
  </g>
  <g transform="translate(108.81 273.4)">
   <path d="m819.15-352.24h6.2825v6.2825h-6.2825z"/>
   <path d="m808.25-352.24h6.2825v6.2825h-6.2825z"/>
   <path d="m786.45-352.24h6.2825v6.2825h-6.2825z"/>
   <path d="m775.55-352.24h6.2825v6.2825h-6.2825z"/>
   <path d="m797.35-352.24h6.2825v6.2825h-6.2825z"/>
   <path d="m851.85-352.24h6.2825v6.2825h-6.2825z"/>
   <path d="m830.05-352.24h6.2825v6.2825h-6.2825z"/>
   <path d="m840.95-352.24h6.2825v6.2825h-6.2825z"/>
   <path d="m862.75-352.24h6.2825v6.2825h-6.2825z"/>
  </g>
  <g transform="translate(108.81 284.33)">
   <path d="m819.15-352.24h6.2825v6.2825h-6.2825z"/>
   <path d="m808.25-352.24h6.2825v6.2825h-6.2825z"/>
   <path d="m786.45-352.24h6.2825v6.2825h-6.2825z"/>
   <path d="m775.55-352.24h6.2825v6.2825h-6.2825z"/>
   <path d="m797.35-352.24h6.2825v6.2825h-6.2825z"/>
   <path d="m851.85-352.24h6.2825v6.2825h-6.2825z"/>
   <path d="m830.05-352.24h6.2825v6.2825h-6.2825z"/>
   <path d="m840.95-352.24h6.2825v6.2825h-6.2825z"/>
   <path d="m862.75-352.24h6.2825v6.2825h-6.2825z"/>
  </g>
  <g transform="translate(108.81 295.26)">
   <path d="m819.15-352.24h6.2825v6.2825h-6.2825z"/>
   <path d="m808.25-352.24h6.2825v6.2825h-6.2825z"/>
   <path d="m786.45-352.24h6.2825v6.2825h-6.2825z"/>
   <path d="m775.55-352.24h6.2825v6.2825h-6.2825z"/>
   <path d="m797.35-352.24h6.2825v6.2825h-6.2825z"/>
   <path d="m851.85-352.24h6.2825v6.2825h-6.2825z"/>
   <path d="m830.05-352.24h6.2825v6.2825h-6.2825z"/>
   <path d="m840.95-352.24h6.2825v6.2825h-6.2825z"/>
   <path d="m862.75-352.24h6.2825v6.2825h-6.2825z"/>
  </g>
  <path transform="rotate(90)" d="m-56.86-879.69h6.2825v6.2825h-6.2825z"/>
  <path transform="rotate(90)" d="m-78.661-879.69h6.2825v6.2825h-6.2825z"/>
  <path transform="rotate(90)" d="m-89.562-879.69h6.2825v6.2825h-6.2825z"/>
  <path transform="rotate(90)" d="m-67.761-879.69h6.2825v6.2825h-6.2825z"/>
 </g>
 <g transform="translate(-735.55 613.4)" stroke="#9c9c9c" stroke-width="2.3">
  <path d="m1005.5-583.71v567.91c-9.5868-0.07072-11.201-10.108-13.499-19.29v-529.82c3.11-15.994 8.633-15.098 13.499-18.803z" fill="url(#c)"/>
  <path d="m748.97-583.71v567.91c9.5868-0.07072 11.201-10.108 13.499-19.29v-529.82c-3.11-15.994-8.633-15.098-13.499-18.803z" fill="url(#b)"/>
 </g>
 <path transform="translate(-738.26 566.75)" d="m907.41-225.64c0 15.312-12.413 27.725-27.725 27.725s-27.725-12.413-27.725-27.725 12.413-27.725 27.725-27.725 27.725 12.413 27.725 27.725z" fill="#b3b3b3" stroke="#333" stroke-miterlimit="2" stroke-width="4"/>
 <path transform="matrix(.34399 0 0 .34399 -161.17 360.22)" d="m907.41-225.64c0 15.312-12.413 27.725-27.725 27.725s-27.725-12.413-27.725-27.725 12.413-27.725 27.725-27.725 27.725 12.413 27.725 27.725z" fill="#333" stroke="#333" stroke-miterlimit="2" stroke-width="4"/>
 <g transform="translate(-735.55 613.4)" fill="#333">
  <path d="m781.86-563.89h190.06v154.78h-190.06z"/>
  <path d="m781.86-396.89h190.06v38.783h-190.06z"/>
 </g>
 <g transform="translate(-735.55 613.4)" fill="#666">
  <path d="m785.32075-560.80414h183.14169a.75386,.75386 0 0,1 .75386.75386v41.75742a.75386,.75386 0 0,1 -.75386.75386h-183.14169a.75386,.75386 0 0,1 -.75386-.75386v-41.75742a.75386,.75386 0 0,1 .75386-.75386"/>
  <path d="m868.15857-455.08322h100.51962a.53809,.53809 0 0,1 .53809.53809v29.80564a.53809,.53809 0 0,1 -.53809.53809h-100.51962a.53809,.53809 0 0,1 -.53809-.53809v-29.80564a.53809,.53809 0 0,1 .53809-.53809"/>
  <path d="m785.32075-512.53516h183.14169a.75386,.75386 0 0,1 .75386.75386v41.75742a.75386,.75386 0 0,1 -.75386.75386h-183.14169a.75386,.75386 0 0,1 -.75386-.75386v-41.75742a.75386,.75386 0 0,1 .75386-.75386"/>
 </g>
 <g transform="translate(0,9.375)">
  <path d="m94.278 16.123h94.126a3.9372 3.9372 0 0 1 3.9372 3.9372v1.1255a3.9372 3.9372 0 0 1 -3.9372 3.9372h-94.126a3.9372 3.9372 0 0 1 -3.9372 -3.9372v-1.1255a3.9372 3.9372 0 0 1 3.9372 -3.9372" fill="#787878" stroke="#9c9c9c" stroke-width="2.3"/>
  <path transform="rotate(90)" d="m217.73076-221.87239h17.58417a.75386,.75386 0 0,1 .75386.75386v4.14914a.75386,.75386 0 0,1 -.75386.75386h-17.58417a.75386,.75386 0 0,1 -.75386-.75386v-4.14914a.75386,.75386 0 0,1 .75386-.75386" fill="#4d4d4d" stroke="#999"/>
  <path transform="rotate(90)" d="m217.73076-208.82841h17.58417a.75386,.75386 0 0,1 .75386.75386v4.14914a.75386,.75386 0 0,1 -.75386.75386h-17.58417a.75386,.75386 0 0,1 -.75386-.75386v-4.14914a.75386,.75386 0 0,1 .75386-.75386" fill="#4d4d4d" stroke="#999"/>
  <path transform="matrix(.55434 0 0 .55434 -416.65 84.038)" d="m922.77 257.03c0 5.8579-4.7487 10.607-10.607 10.607s-10.607-4.7487-10.607-10.607 4.7487-10.607 10.607-10.607 10.607 4.7487 10.607 10.607z" fill="#4d4d4d" stroke="#999" stroke-width="1.8039"/>
 </g>
</svg>
