<svg xmlns="http://www.w3.org/2000/svg" xmlns:xlink="http://www.w3.org/1999/xlink" viewBox="0,0,256,256" width="512px" height="512px" fill-rule="nonzero"><g fill-opacity="0" fill="#dddddd" fill-rule="nonzero" stroke="none" stroke-width="1" stroke-linecap="butt" stroke-linejoin="miter" stroke-miterlimit="10" stroke-dasharray="" stroke-dashoffset="0" font-family="none" font-weight="none" font-size="none" text-anchor="none" style="mix-blend-mode: normal"><path d="M0,256v-256h256v256z" id="bgRectangle"></path></g><g fill="#000000" fill-rule="nonzero" stroke="none" stroke-width="1" stroke-linecap="butt" stroke-linejoin="miter" stroke-miterlimit="10" stroke-dasharray="" stroke-dashoffset="0" font-family="none" font-weight="none" font-size="none" text-anchor="none" style="mix-blend-mode: normal"><g transform="scale(8,8)"><path d="M16.1875,3.02344c-5.339,0 -10.57695,3.24177 -12.50195,9.25977c-1.988,6.211 1.358,12.41494 6.125,15.08594c1.391,0.779 3.7375,1.60742 6.4375,1.60742c3.369,0 7.28708,-1.28936 10.58008,-5.56836c0.276,-0.387 0.47036,-0.7352 0.19336,-1.0332c-0.07,-0.075 -0.14805,-0.10937 -0.24805,-0.10937c-0.296,0 -0.7857,0.30028 -1.8457,0.73828c-0.773,0.319 -1.91498,0.48828 -3.08398,0.48828c-0.976,0 -1.97016,-0.11728 -2.78516,-0.36328c-1.792,-0.541 -4.42852,-1.46478 -5.85352,-5.05078c-0.32394,-0.81577 -0.68838,-2.65558 0.20898,-3.90234c0.03612,-0.0433 0.0666,-0.08549 0.10352,-0.12891c0.61366,-0.7678 1.54717,-1.33789 2.58984,-1.33789c0.582,0 1.19378,0.1758 1.80078,0.5918c1.732,1.187 1.68809,3.06436 1.12109,4.06836c-0.396,0.7 -0.57548,0.8698 -0.64648,0.9668c-0.071,0.098 -0.48067,0.53742 0.23633,0.98242c0.717,0.445 1.48492,0.89552 3.04492,0.97852c0.245,0.013 0.50625,0.02148 0.78125,0.02148c1.48,0 3.33366,-0.27683 4.84766,-1.79883c2.148,-2.16 1.70967,-5.12381 1.13867,-6.75781c-0.571,-1.634 -3.01772,-7.20791 -9.76172,-8.50391c-0.822,-0.157 -1.65442,-0.23437 -2.48242,-0.23437zM16.1875,5.02344c0.705,0 1.41252,0.06622 2.10352,0.19922c5.706,1.096 7.75895,5.78722 8.25195,7.19922c0.312,0.894 0.87108,3.13945 -0.66992,4.68945c-0.832,0.837 -1.88874,1.20898 -3.42773,1.20898c-0.238,0 -0.46478,-0.00853 -0.67578,-0.01953c-0.364,-0.019 -0.6563,-0.06105 -0.9043,-0.12305c0.89075,-1.75782 0.71493,-4.29825 -1.21484,-6.03516c-1.42498,-1.63726 -3.968,-3.36103 -6.85937,-3.91797h-0.00195c-0.75956,-0.14605 -1.5801,-0.18823 -2.41211,-0.11328c-0.79858,0.07194 -1.60667,0.26364 -2.38867,0.55859c2.04661,-2.29276 4.95653,-3.64648 8.19922,-3.64648zM11.53125,10.08594c0.30455,0.01324 0.59992,0.04748 0.88086,0.10156c0.75623,0.14553 1.50989,0.42226 2.22656,0.75977c-0.91614,0.2846 -1.76554,0.82363 -2.44531,1.57031l-0.00781,-0.00586c-0.07313,0.08337 -0.12852,0.16661 -0.19922,0.25c-0.04544,0.05579 -0.09509,0.10631 -0.13867,0.16406c-0.01077,0.01427 -0.01678,0.03057 -0.02734,0.04492c-2.96026,3.59451 -3.70735,7.18537 -2.96875,10.06641c0.15995,0.62391 0.39833,1.20178 0.67969,1.74805c-3.12618,-2.42191 -5.3655,-6.89764 -4.02344,-11.58398h0.00195c1.30351,-2.27702 3.88965,-3.20796 6.02148,-3.11523zM11.09961,18.05859c0.07233,0.26951 0.15289,0.52722 0.24609,0.76172c1.839,4.626 5.41577,5.70756 7.13477,6.22656c1.139,0.344 2.31801,0.43527 3.16602,0.44727c-1.636,0.987 -3.44044,1.48438 -5.39844,1.48438c-0.42083,0 -0.81851,-0.02833 -1.20312,-0.06836c-1.90174,-0.4548 -3.6669,-2.07183 -4.25586,-4.36914c-0.32937,-1.28475 -0.28876,-2.80569 0.31055,-4.48242z"></path></g></g></svg>