<?xml version="1.0" encoding="UTF-8"?>
<svg viewBox="0 0 96.401711 117.91851" xmlns="http://www.w3.org/2000/svg" xmlns:xlink="http://www.w3.org/1999/xlink">
 <defs>
  <filter id="s">
   <feGaussianBlur stdDeviation="1.23582"/>
  </filter>
  <filter id="b" x="-.05483" y="-.13331" width="1.1096" height="1.2666">
   <feGaussianBlur stdDeviation=".22466"/>
  </filter>
  <filter id="t" x="-.12064" y="-.20985" width="1.2413" height="1.4197">
   <feGaussianBlur stdDeviation="4.80556"/>
  </filter>
  <linearGradient id="c">
   <stop offset="0"/>
   <stop stop-color="#fff" offset=".08267"/>
   <stop stop-color="#0b0000" offset=".32813"/>
   <stop stop-color="#fff" offset=".92406"/>
   <stop offset="1"/>
  </linearGradient>
  <linearGradient id="d">
   <stop stop-color="#fdfdfd" offset="0"/>
   <stop stop-color="#989898" offset="1"/>
  </linearGradient>
  <linearGradient id="a">
   <stop stop-color="#24ff00" offset="0"/>
   <stop stop-color="#479d42" offset="1"/>
  </linearGradient>
  <linearGradient id="r" x1="-4.9087" x2="-89.941" y1="452.98" y2="450.7" gradientUnits="userSpaceOnUse">
   <stop offset="0"/>
   <stop stop-color="#fff" offset=".63582"/>
   <stop stop-color="#0b0000" offset=".71696"/>
   <stop stop-color="#fff" offset=".78319"/>
   <stop offset="1"/>
  </linearGradient>
  <linearGradient id="p" x1="-88.506" x2="-4.9936" y1="452.33" y2="454.36" gradientUnits="userSpaceOnUse">
   <stop offset="0"/>
   <stop stop-color="#fff" offset=".75382"/>
   <stop stop-color="#0b0000" offset=".82146"/>
   <stop stop-color="#fff" offset=".90837"/>
   <stop offset="1"/>
  </linearGradient>
  <linearGradient id="q" x1="105.94" x2="166.13" gradientUnits="userSpaceOnUse" xlink:href="#c"/>
  <linearGradient id="o" x1="105.94" x2="166.06" gradientUnits="userSpaceOnUse" xlink:href="#c"/>
  <linearGradient id="n" x1="353.39" x2="379.26" gradientUnits="userSpaceOnUse" xlink:href="#a"/>
  <linearGradient id="m" x1="363.69" x2="397.95" gradientUnits="userSpaceOnUse" xlink:href="#a"/>
  <linearGradient id="l" x1="385.49" x2="405.88" gradientUnits="userSpaceOnUse" xlink:href="#a"/>
  <linearGradient id="k" x1="377.19" x2="405.9" gradientUnits="userSpaceOnUse" xlink:href="#a"/>
  <linearGradient id="j" x1="353.63" x2="375.3" gradientUnits="userSpaceOnUse" xlink:href="#a"/>
  <linearGradient id="i" x1="343.23" x2="364.49" gradientUnits="userSpaceOnUse" xlink:href="#a"/>
  <radialGradient id="h" cx="-3.2997" cy="564.05" r="42.406" gradientTransform="matrix(1.1579 -.05736 .25762 5.2004 -166.3 -2477.5)" gradientUnits="userSpaceOnUse">
   <stop stop-color="#62a8bd" offset="0"/>
   <stop stop-color="#fff" offset=".3697"/>
   <stop stop-color="#62a8bd" offset=".63932"/>
   <stop stop-color="#feffff" offset=".76013"/>
   <stop stop-color="#62a8bd" offset="1"/>
  </radialGradient>
  <radialGradient id="e" cx="869.39" cy="342.87" r="42.329" gradientTransform="matrix(1.3943 .05888 -.19236 4.5552 -1205.3 -1137.5)" gradientUnits="userSpaceOnUse">
   <stop stop-color="#62a8bd" offset="0"/>
   <stop stop-color="#fff" offset=".33808"/>
   <stop stop-color="#62a8bd" offset=".54672"/>
   <stop stop-color="#feffff" offset=".76013"/>
   <stop stop-color="#62a8bd" offset="1"/>
  </radialGradient>
  <radialGradient id="g" cx="136.04" cy="413.95" r="29.369" gradientTransform="matrix(1.1537 -1.604e-7 4.7637e-8 .51334 -20.909 201.45)" gradientUnits="userSpaceOnUse" xlink:href="#d"/>
  <radialGradient id="f" cx="148.6" cy="406.8" r="29.369" gradientTransform="matrix(1.1537 -1.604e-7 4.7637e-8 .51334 -20.909 201.45)" gradientUnits="userSpaceOnUse" xlink:href="#d"/>
 </defs>
 <g transform="translate(101.38 -437.39)">
  <path transform="matrix(.83179 0 0 .75594 -5.4788 134.02)" d="m-79.769 499.58c-20.82 4.8442-36.957 21.427-31.358 25.939l27.504 21.46c6.3734 1.5267 30.964 4.0084 39.601 3.7157 14.766-0.62492 33.702-9.0086 30.587-12.271-5.5116-13.373-14.442-21.583-20.373-34.607-5.5986-4.5122-25.14-9.0799-45.96-4.2357l2e-5 -4e-4z" fill="#0b1e2f" filter="url(#t)" opacity=".26277"/>
  <g transform="translate(.05)">
   <path d="m-47.54 444.48c-23.409 0-42.406 5.694-42.406 12.688 0 0.26322 0.062 0.52098 0.094 0.78125l11.906 83.125h0.031c-0.03-0.1642-0.031-0.3336-0.031-0.5 0-5.0128 13.627-9.0625 30.406-9.0625s30.406 4.0498 30.406 9.0625v0.46875l11.938-83.062c0.043-0.26868 0.043-0.54213 0.062-0.8125 0-6.9935-18.997-12.688-42.406-12.688h1e-4 -1e-4z" fill="url(#h)" opacity=".3"/>
   <path transform="matrix(1.0409 0 0 .85039 -189.14 189.27)" d="m165.34 413.95c0 5.9156-13.129 10.717-29.307 10.717s-29.307-4.8011-29.307-10.717 13.129-10.717 29.307-10.717 29.307 4.8011 29.307 10.717z" fill="url(#g)" stroke="#383838" stroke-width=".10027"/>
   <path transform="matrix(1.0409 0 0 .85039 -189.14 191.08)" d="m165.34 413.95c0 5.9156-13.129 10.717-29.307 10.717s-29.307-4.8011-29.307-10.717 13.129-10.717 29.307-10.717 29.307 4.8011 29.307 10.717z" fill="#747171"/>
   <path transform="matrix(1.0409 0 0 .85039 -189.14 190.48)" d="m165.34 413.95c0 5.9156-13.129 10.717-29.307 10.717s-29.307-4.8011-29.307-10.717 13.129-10.717 29.307-10.717 29.307 4.8011 29.307 10.717z" fill="#747171"/>
   <path transform="matrix(1.0409 0 0 .85039 -189.14 189.68)" d="m165.34 413.95c0 5.9156-13.129 10.717-29.307 10.717s-29.307-4.8011-29.307-10.717 13.129-10.717 29.307-10.717 29.307 4.8011 29.307 10.717z" fill="#747171"/>
   <path transform="matrix(1.0409 0 0 .85039 -189.14 188.66)" d="m165.34 413.95c0 5.9156-13.129 10.717-29.307 10.717s-29.307-4.8011-29.307-10.717 13.129-10.717 29.307-10.717 29.307 4.8011 29.307 10.717z" fill="url(#f)" stroke="#383838" stroke-width=".10027"/>
   <g transform="translate(-.11536)" fill="none">
    <path d="m-5.8882 451.59c0-6.8498-18.608-12.409-41.537-12.409s-41.537 5.5592-41.537 12.409m83.073 1.3933c0-6.8498-18.608-12.409-41.537-12.409s-41.537 5.5592-41.537 12.409m83.073 1.3933c0-6.8498-18.608-12.409-41.537-12.409s-41.537 5.5592-41.537 12.409m83.073 1.3933c0-6.8498-18.608-12.409-41.537-12.409s-41.537 5.5592-41.537 12.409m83.073 1.3933c0-6.8498-18.608-12.409-41.537-12.409s-41.537 5.5592-41.537 12.409" stroke="url(#r)" stroke-width="1.9589"/>
    <path transform="matrix(1.4163 0 0 1.151 -240.1 -25.707)" d="m106.73 413.95c1e-5 -5.9156 13.129-10.717 29.307-10.717s29.307 4.8011 29.307 10.717" stroke="url(#q)" stroke-width="1.5787"/>
   </g>
  </g>
  <g transform="translate(.05,.18671)">
   <path d="m-5.2131 457.86c-1.2453 6.6605-19.74 11.969-42.344 11.969-22.472 0-40.875-5.2382-42.312-11.844l11.906 83.125h0.062c0.8147 4.796 14.089 8.625 30.344 8.625 16.29 0 29.612-3.8458 30.375-8.6562h0.031l11.938-83.062c0.01-0.0514-0.01-0.10459 0-0.15625z" fill="url(#e)" opacity=".39781"/>
   <g transform="translate(-.03041)">
    <path d="m-5.9731 456.77c0 6.8498-18.608 12.409-41.537 12.409s-41.537-5.5592-41.537-12.409m83.073-1.3933c0 0.93915-0.34981 1.854-1.0126 2.7337-4.1713 5.536-20.739 9.6753-40.524 9.6753-22.928 0-41.537-5.5592-41.537-12.409m83.073-1.3933c0 6.8498-18.608 12.409-41.537 12.409s-41.537-5.5592-41.537-12.409m83.073-1.3932c0 6.8498-18.608 12.409-41.537 12.409s-41.537-5.5592-41.537-12.409m83.073-1.3933c0 6.8498-18.608 12.409-41.537 12.409s-41.537-5.5592-41.537-12.409" fill="none" stroke="url(#p)" stroke-width="1.9589"/>
   </g>
   <path transform="matrix(1.4163 0 0 1.151 -240.21 -26.26)" d="m165.34 413.95c0 5.9156-13.129 10.717-29.307 10.717s-29.307-4.8011-29.307-10.717" fill="none" stroke="url(#o)" stroke-width="1.5787"/>
  </g>
  <g transform="matrix(.84123 0 0 .84123 -363.87 150.88)" filter="url(#s)" opacity=".4927">
   <path d="m353.39 405.71s6.9206-12.807 10.646-14.498c3.7535-1.703 4.9986-0.37256 4.9986-0.37256l4.8019 2.1686 4.2524 2.5624s2.8788 2.2122-0.39829 2.0667-11.33 15.104-11.33 15.104l-12.971-7.0312z"/>
   <path transform="matrix(1.3853 0 0 1.3853 -492.1 -376.41)" d="m625.21257,557.38207c-1.66351-1.07712-3.76195-2.11142-4.83704-2.38414-.28707-.0728-.70472-.14885-.92812-.16896-.63409-.0571-1.60023.12104-2.43848.44954-.1923.0754-.36407.12196-.38171.10354-.0598-.0625.89805-.90899 1.18435-1.0467 .18603-.0895.47775-.16033.84234-.20457 1.61143-.19555 3.57042.4089 5.25283,1.62077 .70822.51014 1.64241,1.31612 2.10952,1.81999 .42036.45345.50395.57059.40493.56744-.0229-.00073-.56681-.34134-1.20862-.75691z" filter="url(#b)"/>
   <path d="m382.46 388.71c4.8931 0.47094 9.3111 3.9984 11.409 9.0886l4.0791-2.113-5.4673 13.65-15.366-1.5822 4.0719-2.3258c-0.0762-0.0952-2.0752-5.0607-4.055-7.316s-2.2545-2.7185-4.3972-4.3791c-2.991-2.318-6.2535-3.1797-9.0503-2.3634 5.8972-2.9464 13.883-3.1304 18.776-2.6594z"/>
   <path d="m397.46 406.3s8.521 11.803 8.4221 15.894c-0.0996 4.1206-1.8392 4.6628-1.8392 4.6628l-4.0418 3.3802-4.1573 2.714s-3.2443 1.6297-1.6876-1.2578-8.6704-16.772-8.6704-16.772l11.974-8.6203z"/>
   <path transform="matrix(-.6027 1.2473 -1.2473 -.6027 1271.4 307.21)" d="m353.76086,529.72724c-1.66351-1.07712-3.76195-2.11142-4.83704-2.38414-.28707-.0728-.70472-.14885-.92812-.16896-.63409-.0571-1.60023.12104-2.43848.44954-.1923.0754-.36407.12196-.38171.10354-.0598-.0625.89805-.90899 1.18435-1.0467 .18603-.0895.47775-.16033.84234-.20457 1.61143-.19555 3.57042.4089 5.25283,1.62077 .70822.51014 1.64241,1.31612 2.10952,1.81999 .42036.45345.50395.57059.40493.56744-.0229-.00073-.56681-.34134-1.20862-.75691z" filter="url(#b)"/>
   <path d="m400.12 439.86c-2.5528 4.2009-7.651 6.6442-13.147 6.319l0.12786 4.5921-9.912-10.861 8.1099-13.147 0.32263 4.6782c0.11886-0.0272 5.4595 0.33324 8.3515-0.46818s3.4286-0.84726 5.856-2.0541c3.3884-1.6846 5.5837-4.2473 6.0655-7.1206 0.0873 6.5917-3.2212 13.862-5.7741 18.063z"/>
   <path d="m375.3 445.21s-14.53 0.90225-17.935-1.3654c-3.4308-2.2844-2.9604-4.0448-2.9604-4.0448l-0.6999-5.2222-0.075-4.9642s0.35439-3.6133 1.9645-0.75528 18.811 1.6246 18.811 1.6246l0.89503 14.727z"/>
   <path transform="matrix(-.73283 -1.1756 1.1756 -.73283 -7.5692 1237.1)" d="m353.76086,529.72724c-1.66351-1.07712-3.76195-2.11142-4.83704-2.38414-.28707-.0728-.70472-.14885-.92812-.16896-.63409-.0571-1.60023.12104-2.43848.44954-.1923.0754-.36407.12196-.38171.10354-.0598-.0625.89805-.90899 1.18435-1.0467 .18603-.0895.47775-.16033.84234-.20457 1.61143-.19555 3.57042.4089 5.25283,1.62077 .70822.51014 1.64241,1.31612 2.10952,1.81999 .42036.45345.50395.57059.40493.56744-.0229-.00073-.56681-.34134-1.20862-.75691z" filter="url(#b)"/>
   <path d="m345.5 429.53c-2.1888-4.4016-1.5325-10.017 1.6772-14.49l-3.951-2.3439 14.476-2.5813 6.7861 13.877-4.1278-2.2251c-0.0405 0.11498-3.1968 4.4382-4.0634 7.3113s-1.1143 3.3513-1.39 6.0481c-0.38486 3.7645 0.60978 6.9889 2.782 8.9305-5.62-3.4458-10-10.125-12.189-14.527z"/>
  </g>
  <g transform="matrix(.84123 0 0 .84123 -362.3 150.36)">
   <path d="m353.39 405.71s6.9206-12.807 10.646-14.498c3.7535-1.703 4.9986-0.37256 4.9986-0.37256l4.8019 2.1686 4.2524 2.5624s2.8788 2.2122-0.39829 2.0667-11.33 15.104-11.33 15.104l-12.971-7.0312z" fill="url(#n)"/>
   <path transform="matrix(1.3853 0 0 1.3853 -492.1 -376.41)" d="m625.21257,557.38207c-1.66351-1.07712-3.76195-2.11142-4.83704-2.38414-.28707-.0728-.70472-.14885-.92812-.16896-.63409-.0571-1.60023.12104-2.43848.44954-.1923.0754-.36407.12196-.38171.10354-.0598-.0625.89805-.90899 1.18435-1.0467 .18603-.0895.47775-.16033.84234-.20457 1.61143-.19555 3.57042.4089 5.25283,1.62077 .70822.51014 1.64241,1.31612 2.10952,1.81999 .42036.45345.50395.57059.40493.56744-.0229-.00073-.56681-.34134-1.20862-.75691z" fill="#020000" fill-opacity=".75" filter="url(#b)"/>
   <path d="m382.46 388.71c4.8931 0.47094 9.3111 3.9984 11.409 9.0886l4.0791-2.113-5.4673 13.65-15.366-1.5822 4.0719-2.3258c-0.0762-0.0952-2.0752-5.0607-4.055-7.316s-2.2545-2.7185-4.3972-4.3791c-2.991-2.318-6.2535-3.1797-9.0503-2.3634 5.8972-2.9464 13.883-3.1304 18.776-2.6594z" fill="url(#m)"/>
   <path d="m397.46 406.3s8.521 11.803 8.4221 15.894c-0.0996 4.1206-1.8392 4.6628-1.8392 4.6628l-4.0418 3.3802-4.1573 2.714s-3.2443 1.6297-1.6876-1.2578-8.6704-16.772-8.6704-16.772l11.974-8.6203z" fill="url(#l)"/>
   <path transform="matrix(-.6027 1.2473 -1.2473 -.6027 1271.4 307.21)" d="m353.76086,529.72724c-1.66351-1.07712-3.76195-2.11142-4.83704-2.38414-.28707-.0728-.70472-.14885-.92812-.16896-.63409-.0571-1.60023.12104-2.43848.44954-.1923.0754-.36407.12196-.38171.10354-.0598-.0625.89805-.90899 1.18435-1.0467 .18603-.0895.47775-.16033.84234-.20457 1.61143-.19555 3.57042.4089 5.25283,1.62077 .70822.51014 1.64241,1.31612 2.10952,1.81999 .42036.45345.50395.57059.40493.56744-.0229-.00073-.56681-.34134-1.20862-.75691z" fill="#020000" fill-opacity=".75" filter="url(#b)"/>
   <path d="m400.12 439.86c-2.5528 4.2009-7.651 6.6442-13.147 6.319l0.12786 4.5921-9.912-10.861 8.1099-13.147 0.32263 4.6782c0.11886-0.0272 5.4595 0.33324 8.3515-0.46818s3.4286-0.84726 5.856-2.0541c3.3884-1.6846 5.5837-4.2473 6.0655-7.1206 0.0873 6.5917-3.2212 13.862-5.7741 18.063z" fill="url(#k)"/>
   <path d="m375.3 445.21s-14.53 0.90225-17.935-1.3654c-3.4308-2.2844-2.9604-4.0448-2.9604-4.0448l-0.6999-5.2222-0.075-4.9642s0.35439-3.6133 1.9645-0.75528 18.811 1.6246 18.811 1.6246l0.89503 14.727z" fill="url(#j)"/>
   <path transform="matrix(-.73283 -1.1756 1.1756 -.73283 -7.5692 1237.1)" d="m353.76086,529.72724c-1.66351-1.07712-3.76195-2.11142-4.83704-2.38414-.28707-.0728-.70472-.14885-.92812-.16896-.63409-.0571-1.60023.12104-2.43848.44954-.1923.0754-.36407.12196-.38171.10354-.0598-.0625.89805-.90899 1.18435-1.0467 .18603-.0895.47775-.16033.84234-.20457 1.61143-.19555 3.57042.4089 5.25283,1.62077 .70822.51014 1.64241,1.31612 2.10952,1.81999 .42036.45345.50395.57059.40493.56744-.0229-.00073-.56681-.34134-1.20862-.75691z" fill="#020000" fill-opacity=".75" filter="url(#b)"/>
   <path d="m345.5 429.53c-2.1888-4.4016-1.5325-10.017 1.6772-14.49l-3.951-2.3439 14.476-2.5813 6.7861 13.877-4.1278-2.2251c-0.0405 0.11498-3.1968 4.4382-4.0634 7.3113s-1.1143 3.3513-1.39 6.0481c-0.38486 3.7645 0.60978 6.9889 2.782 8.9305-5.62-3.4458-10-10.125-12.189-14.527z" fill="url(#i)"/>
  </g>
 </g>
</svg>
