<?xml version="1.0" encoding="UTF-8"?>
<svg viewBox="0 0 640 480" xmlns="http://www.w3.org/2000/svg" xmlns:xlink="http://www.w3.org/1999/xlink">
 <defs>
  <filter id="i">
   <feGaussianBlur stdDeviation="12.52328"/>
  </filter>
  <linearGradient id="a">
   <stop stop-color="#e6e6e6" offset="0"/>
   <stop stop-color="#e6e6e6" stop-opacity="0" offset="1"/>
  </linearGradient>
  <linearGradient id="h" x1="112.4" x2="117.9" y1="814.49" y2="826.47" gradientUnits="userSpaceOnUse">
   <stop stop-color="#4d4d4d" offset="0"/>
   <stop stop-color="#ccc" offset="1"/>
  </linearGradient>
  <linearGradient id="e" x1="242.51" x2="263.58" y1="867.27" y2="900.78" gradientUnits="userSpaceOnUse">
   <stop stop-color="#b3b3b3" offset="0"/>
   <stop stop-color="#ccc" offset=".52613"/>
   <stop stop-color="#e6e6e6" offset=".64088"/>
   <stop stop-color="#b3b3b3" offset="1"/>
  </linearGradient>
  <linearGradient id="d" x1="346.68" x2="303.61" y1="805.01" y2="855.33" gradientUnits="userSpaceOnUse">
   <stop stop-color="#214478" offset="0"/>
   <stop stop-color="#162d50" offset="1"/>
  </linearGradient>
  <linearGradient id="c" x1="203.09" x2="351.05" y1="806.94" y2="836.42" gradientUnits="userSpaceOnUse">
   <stop stop-color="#161650" offset="0"/>
   <stop stop-color="#161650" stop-opacity="0" offset="1"/>
  </linearGradient>
  <linearGradient id="b" x1="428.85" x2="436.37" y1="774.12" y2="785.97" gradientUnits="userSpaceOnUse">
   <stop stop-color="#162d50" offset="0"/>
   <stop stop-color="#214478" stop-opacity="0" offset="1"/>
  </linearGradient>
  <linearGradient id="g" x2="0" y1="841.72" y2="876.75" gradientUnits="userSpaceOnUse" xlink:href="#a"/>
  <linearGradient id="f" x2="0" y1="807.83" y2="841.86" gradientUnits="userSpaceOnUse" xlink:href="#a"/>
 </defs>
 <g transform="translate(0 -572.36)">
  <text transform="translate(0 572.36)" x="312.52554" y="225.11606" font-family="Sans" font-size="40" letter-spacing="0" word-spacing="0">
   <tspan x="312.52554" y="225.11606"/>
  </text>
  <path d="m594.43 733.96-244.08 178.33-18.013-7.2052-135.1 93.668-145.91-100.87 390.88-196.34z" filter="url(#i)" opacity=".73991"/>
  <path d="m349.65 909.01 242.39-175.68 4.6713-51.211c0.84447-5.5281-2.4922-5.4813-4.8443-6.7474l-127.68-31.315-268.51 120.42 147.23 63.495 6.4014 9.6886z" fill="#162d50" stroke="#000" stroke-width=".2"/>
  <path d="m332.41 823.13c7.7224 5.1421 17.532 5.2304 16.601 20.949l245.85-157.71c3.2008-10.34-4.0204-8.7686-7.5099-11.462z" fill="url(#b)"/>
  <path d="m197.65 764.07 145.84 63.966c3.5747 1.5701 5.8937 6.0814 6.1834 9.3817l1.0661 69.296c-0.33551 2.3595-1.7774 1.953-2.9851 2.1322l-147.39-75.894-5.9259-63.704c-0.27215-4.6791 1.1899-5.5431 3.2101-5.1789z" fill="url(#d)" stroke="url(#c)" stroke-width=".6"/>
  <path d="m120.09 832.54 98.932 59.188 51.068-32.265-100.85-50.855z"/>
  <path d="m206.81 780.11-158.44 74.656 126.31 80.219 158.09-98.062-125.97-56.812zm-38.906 35.438 26.219 13.562-36.562 18.969-26.438-14.594 36.781-17.938zm61.312 31.25 30.469 15.688-36.781 21.719-30.594-17.156 36.906-20.25z" fill="#ccc"/>
  <path d="m337.99 844.71 1.6234 44.156-154.22 106.17-5.5195-50.974z" fill="#ccc"/>
  <path d="m172.85 933.55c3.8397 3.0208 7.0904 5.6798 7.0175 11.244l158.12-98.782c0.0201-2.6328-1.0109-7.5993-6.1646-9.6213z" fill="url(#e)"/>
  <path d="m131.9 833.9-4.2205-2.1748 39.811-19.173 29.652 15.037-2.9104 1.5005-26.32-13.582z" fill="url(#f)"/>
  <path d="m192.32 867.04-3.0199-1.8119 39.776-22.088 33.563 17.515-3.1924 1.9845-30.285-15.703z" fill="url(#g)"/>
  <path d="m174.03 934.44-125.49-79.612c-3.006-1.2956-3.5146 0.32251-3.3981 2.6699l8.2524 44.358c0.5624 3.0345 1.9036 4.49 3.8835 6.8553l125.24 86.408c1.438 0.5297 2.7526 0.8126 3.1553-0.7282l-5.5825-50.485c-0.72886-4.7726-3.2675-7.283-6.068-9.466z" fill="none" stroke="#999" stroke-width=".3"/>
  <path d="m174.03 934.44-125.49-79.612c-3.006-1.2956-3.5146 0.32251-3.3981 2.6699l8.2524 44.358c0.5624 3.0345 1.9036 4.49 3.8835 6.8553l125.24 86.408c1.438 0.5297 2.7526 0.8126 3.1553-0.7282l-5.5825-50.485c-0.72886-4.7726-3.2675-7.283-6.068-9.466z" fill="#fff"/>
  <path d="m171.06 935.53-119.86-75.76c-3.7012-3.2243-4.1942-1.459-3.2938 2.588l7.2119 38.439c0.54515 2.9414 1.2546 3.7617 3.5675 6.2514l122.19 84.151c1.3939 0.5135 1.8808 0.7877 2.2712-0.7058l-5.4113-46.968c-0.7065-4.6262-3.9546-5.8785-6.6692-7.9946z" fill="none" stroke="#999" stroke-width=".3"/>
  <path d="m180.11 965.44-127.36-84.839 4.1337 21.259c0.79045 1.2498-0.36211 0.55649 2.7558 4.1337l123.42 84.839z" fill="#333"/>
  <path d="m52.754 880.8 17.125-9.0547 102.36 64.761c2.2805 1.5609 4.7897 3.7659 5.3148 6.6926l2.559 22.44z" fill="#1a1a1a"/>
  <path d="m45.802 854.5c0.96548-0.55549 2.1413-0.20979 3.8085 0.81393l157.94-74.878c-0.53455-0.53136-2.2941-0.47464-3.1797-0.0716z" fill="url(#h)"/>
  <g transform="translate(0 540.36)" fill="#6f8a91" font-family="Sans" font-size="40" letter-spacing="0" word-spacing="0">
   <path d="m350.48 196.56 3.1854-1.5647 13.842 7.1195c2.3994 1.2341 4.0357 2.3491 4.911 3.3462s1.0586 2.0804 0.5477 3.2503-1.9071 2.3453-4.1917 3.5199c-2.2293 1.1462-4.4495 1.8879-6.6585 2.2224-2.2156 0.33546-4.3761 0.28195-6.4791-0.16188-2.1068-0.44461-4.4528-1.326-7.0373-2.6446l-14.144-7.2161 3.2794-1.6108 14.075 7.1912c2.1112 1.0786 3.8612 1.7736 5.2502 2.0855s2.824 0.36346 4.3087 0.15639 2.9012-0.6574 4.258-1.3513c2.3149-1.1839 3.4299-2.2956 3.3527-3.338s-1.6177-2.3323-4.6246-3.8769l-13.876-7.1272"/>
   <path d="m374.05 201.26 2.6522-1.6072c1.3212 0.54109 2.6108 0.87976 3.8686 1.0162s2.6412 0.0572 4.1538-0.23657 2.9134-0.77219 4.2121-1.4364c1.1506-0.58843 1.9889-1.1977 2.5164-1.8281s0.69852-1.2109 0.5164-1.745-0.63341-0.9875-1.3543-1.3614c-0.73177-0.37953-1.5776-0.60642-2.538-0.68066s-2.1059 0.033-3.4347 0.32244c-0.8595 0.18286-2.6029 0.67172-5.2378 1.4689-2.646 0.80058-4.6328 1.298-5.9539 1.4899-1.7081 0.25347-3.2781 0.29091-4.7084 0.11166s-2.6961-0.5512-3.7902-1.1152c-1.203-0.62009-1.9891-1.3677-2.3574-2.2421s-0.17219-1.7701 0.58602-2.6884 1.9255-1.762 3.5043-2.5369c1.7335-0.85084 3.5392-1.4531 5.4173-1.8083 1.8731-0.35411 3.7036-0.42174 5.493-0.20387s3.3899 0.66923 4.8129 1.3551l-2.6845 1.5629c-1.6391-0.69051-3.2918-1.0078-4.9596-0.95119s-3.4013 0.5259-5.1925 1.4096c-1.8717 0.92354-2.8918 1.7783-3.0555 2.5625-0.16392 0.78531 0.24565 1.4321 1.2286 1.9394 0.85299 0.44024 1.8583 0.65099 3.015 0.63242 1.1445-0.0132 3.2566-0.49714 6.326-1.4482 3.0544-0.9464 5.2482-1.5375 6.5908-1.7765 1.957-0.34224 3.7293-0.42258 5.3189-0.24197s3.0036 0.59446 4.2511 1.2423c1.2362 0.642 2.0577 1.4214 2.4651 2.339s0.27296 1.865-0.40567 2.8409-1.8294 1.8836-3.4503 2.717c-2.0618 1.0601-4.1057 1.7914-6.13 2.1918-2.0302 0.40157-4.0756 0.48596-6.135 0.2519s-3.9112-0.74982-5.5407-1.546"/>
   <path d="m403.74 193.84-23.184-12.06 8.4971-4.1738c1.7137-0.84175 3.3168-1.3934 4.811-1.6564s3.007-0.28436 4.5484-0.0663 2.832 0.60107 3.8802 1.15c0.97509 0.51065 1.6381 1.1182 1.9896 1.8232 0.35165 0.70541 0.2777 1.4545-0.22266 2.2481 1.7339-0.45511 3.4419-0.60615 5.1254-0.45424s3.1802 0.57354 4.5011 1.2655c1.0623 0.55657 1.8353 1.1827 2.3196 1.8789s0.65952 1.3355 0.52479 1.9173-0.55154 1.1841-1.2508 1.8055-1.7448 1.2905-3.1349 2.0046l-8.4046 4.3179m-10.435-8.469 4.8312-2.4185c1.303-0.65227 2.1467-1.1653 2.5332-1.54 0.515-0.49203 0.69514-0.97073 0.54098-1.4364s-0.63165-0.90759-1.433-1.3267c-0.75997-0.39749-1.6054-0.66003-2.5367-0.78761s-1.8343-0.085-2.7066 0.12843-2.1136 0.7172-3.7233 1.5121l-4.5036 2.224 6.9977 3.6448m10.653 5.5487 5.4899-2.8056c0.93671-0.47872 1.557-0.83331 1.8622-1.0643 0.54097-0.40499 0.88932-0.79712 1.0455-1.1766s0.10071-0.78664-0.16572-1.2226-0.76171-0.84321-1.4863-1.2224c-0.84908-0.44426-1.7959-0.72488-2.841-0.84182s-2.069-0.0547-3.0686 0.18746-2.2051 0.71767-3.6137 1.4265l-5.1484 2.5909 7.9262 4.1283"/>
   <path d="m442.16 171.4 2.593 1.373-13.738 7.0581c-0.67928-0.33764-1.2135-0.72346-1.6023-1.1574-0.65054-0.71112-1.072-1.523-1.2642-2.435s-0.18829-2.0772 0.0107-3.4971c0.30336-2.1994 0.27753-3.8027-0.0764-4.8152s-1.0444-1.7886-2.0733-2.3328c-1.0798-0.57109-2.3576-0.87147-3.8348-0.90098s-2.8141 0.24844-4.003 0.83495c-1.2595 0.62141-1.8722 1.3291-1.8359 2.1225s0.75309 1.565 2.1494 2.3109l-2.991 1.1908c-1.9306-1.2063-2.8444-2.4017-2.7407-3.5841s1.1741-2.2698 3.2057-3.2676c2.043-1.0033 4.2461-1.4816 6.6104-1.4378s4.4048 0.52647 6.1453 1.448c0.88487 0.46853 1.5835 1.0141 2.0963 1.637s0.84616 1.3834 0.99958 2.2813 0.13515 2.2504-0.0558 4.0572c-0.16951 1.5078-0.22858 2.5041-0.17688 2.9863s0.1824 0.92773 0.39203 1.3355l10.19-5.2076"/>
   <path d="m448.86 170.66-3.0575-1.6218 2.8459-1.453 3.0469 1.6182-2.8353 1.4567"/>
   <path d="m444.58 161.65c-2.5767-1.3706-4.4038-2.5985-5.4789-3.6825-1.0748-1.0836-1.5473-2.0949-1.418-3.033s0.93645-1.7692 2.4188-2.4972c1.0904-0.53551 2.2788-0.8794 3.5651-1.0323 1.284-0.15263 2.6298-0.12498 4.0377 0.0825s2.8869 0.57252 4.4431 1.0956c1.5544 0.52252 3.3946 1.3525 5.5205 2.4895 2.5133 1.3443 4.3025 2.5488 5.37 3.6148s1.5509 2.0658 1.449 2.9995c-0.10205 0.93513-0.87525 1.7745-2.3227 2.5187-1.9125 0.98332-4.1662 1.3608-6.761 1.1289-3.1278-0.28316-6.7365-1.5106-10.824-3.6845m2.5598-1.2864c3.5617 1.8965 6.3147 2.9608 8.2602 3.1947 1.9415 0.23338 3.4721 0.0626 4.5928-0.51107s1.4705-1.3652 1.0592-2.379-2.3727-2.4571-5.8897-4.3363c-3.542-1.8926-6.2837-2.9602-8.224-3.2011s-3.4974-0.0763-4.6586 0.49656c-1.1454 0.56513-1.5427 1.2939-1.1896 2.1859 0.46439 1.133 2.4825 2.6508 6.0497 4.5503"/>
  </g>
 </g>
</svg>
